<svg xmlns="http://www.w3.org/2000/svg" xmlns:xlink="http://www.w3.org/1999/xlink" width="52.753" height="53.001" viewBox="0 0 52.753 53.001">
  <defs>
    <clipPath id="clip-path">
      <rect id="Rectangle_3339" data-name="Rectangle 3339" width="52.753" height="53.001" fill="#fff"/>
    </clipPath>
  </defs>
  <g id="Group_3404" data-name="Group 3404" transform="translate(-1.502 -113.612)">
    <path id="Path_3908" data-name="Path 3908" d="M272.4,238.049a1.032,1.032,0,1,0,1.032,1.032,1.032,1.032,0,0,0-1.032-1.032Zm0,0" transform="translate(-235.06 -108.385)" fill="#fff"/>
    <g id="Group_3403" data-name="Group 3403" transform="translate(1.502 113.612)">
      <g id="Group_3402" data-name="Group 3402" transform="translate(0)" clip-path="url(#clip-path)">
        <path id="Path_3909" data-name="Path 3909" d="M127.05,383.4a1.032,1.032,0,1,0,1.032,1.032,1.031,1.031,0,0,0-1.032-1.032Zm0,0" transform="translate(-109.956 -348.603)" fill="#fff"/>
        <path id="Path_3910" data-name="Path 3910" d="M53.452,120.28a1.031,1.031,0,0,0-.966.278l-4.278,4.312H46.157L43.9,122.53v-2.08l4.217-4.28a1.032,1.032,0,0,0-.405-1.7,10.328,10.328,0,0,0-13.266,12.455l-7.6,7.6L14.18,121.833v-2.491a1.031,1.031,0,0,0-.5-.885l-7.3-4.379a1.031,1.031,0,0,0-1.261.155L2.2,117.152a1.033,1.033,0,0,0-.155,1.261l4.378,7.3a1.033,1.033,0,0,0,.884.5H9.8L22.466,138.9l-7.572,7.572A10.326,10.326,0,0,0,2.438,159.742a1.032,1.032,0,0,0,1.711.4l4.277-4.312h2.062l2.35,2.35v2.062l-4.311,4.278a1.032,1.032,0,0,0,.4,1.71A10.322,10.322,0,0,0,20.6,162.468a10.2,10.2,0,0,0,1.595-8.7l6.081-6.082,1.393,1.513-.639.639a1.032,1.032,0,0,0,1.46,1.46l.579-.579,13.071,14.2.03.031a6.192,6.192,0,0,0,8.757-8.757l-.032-.031-14.22-13.046.572-.572a1.032,1.032,0,1,0-1.46-1.459l-.635.635-1.516-1.391,6.111-6.111A10.325,10.325,0,0,0,54.2,120.955a1.031,1.031,0,0,0-.744-.676ZM10.959,124.45a1.021,1.021,0,0,0-.73-.293H7.9l-3.663-6.115,1.779-1.779,6.1,3.664v2.334a1.032,1.032,0,0,0,.3.729l12.967,13-1.46,1.459Zm26.249,20.13,14.269,13.09a4.128,4.128,0,0,1-5.839,5.838L32.524,149.263Zm-1.522-1.4-4.561,4.56-1.393-1.513,4.438-4.439Zm8.729-10.677a8.252,8.252,0,0,1-2.638-.43,1.033,1.033,0,0,0-1.059.248L20.293,152.75a1.032,1.032,0,0,0-.248,1.06A8.263,8.263,0,0,1,12.22,164.7a8.481,8.481,0,0,1-.9-.048L14.6,161.4a1.031,1.031,0,0,0,.3-.733V157.75a1.031,1.031,0,0,0-.3-.73l-2.954-2.955a1.032,1.032,0,0,0-.73-.3H8a1.035,1.035,0,0,0-.733.305l-3.252,3.278a8.359,8.359,0,0,1-.048-.9,8.264,8.264,0,0,1,10.893-7.825,1.032,1.032,0,0,0,1.059-.248l20.425-20.426a1.031,1.031,0,0,0,.248-1.059A8.263,8.263,0,0,1,44.415,116a8.326,8.326,0,0,1,.927.051l-3.21,3.257a1.033,1.033,0,0,0-.3.724v2.92a1.029,1.029,0,0,0,.289.716l2.851,2.954a1.032,1.032,0,0,0,.743.315h2.92a1.031,1.031,0,0,0,.732-.305l3.252-3.277a8.353,8.353,0,0,1,.048.9,8.265,8.265,0,0,1-8.255,8.255Zm0,0" transform="translate(-1.849 -113.89)" fill="#fff"/>
      </g>
    </g>
    <path id="Path_3911" data-name="Path 3911" d="M161.857,260.977,148.943,273.89a1.032,1.032,0,0,0,1.46,1.459l12.913-12.913a1.032,1.032,0,1,0-1.46-1.459Zm0,0" transform="translate(-128.159 -128.092)" fill="#fff"/>
    <path id="Path_3912" data-name="Path 3912" d="M287.33,401.025a1.032,1.032,0,1,0,1.457-1.462l-9.3-9.272a1.032,1.032,0,0,0-1.457,1.462Zm0,0" transform="translate(-240.592 -240.727)" fill="#fff"/>
  </g>
</svg>
