<svg xmlns="http://www.w3.org/2000/svg" width="43.974" height="53.5" viewBox="0 0 43.974 53.5">
  <path id="Path_3915" data-name="Path 3915" d="M-1955.338,755.484h-41.646a.914.914,0,0,0-.914.914V807.57a.914.914,0,0,0,.914.914h41.646a.914.914,0,0,0,.914-.914V756.4A.914.914,0,0,0-1955.338,755.484Zm-29.4,1.829h6.136v8.962l-2.472-2.472a.914.914,0,0,0-1.293,0l-2.372,2.372Zm-11.331,0h4.682v49.342h-4.682Zm39.817,49.342h-33.306V757.313h2.992v11.069a.914.914,0,0,0,.565.845.913.913,0,0,0,1-.2l3.286-3.286,3.386,3.386a.914.914,0,0,0,.647.268.91.91,0,0,0,.35-.07.915.915,0,0,0,.564-.845V757.313h20.521Z" transform="translate(1998.148 -755.234)" fill="#fff" stroke="#fff" stroke-width="0.5"/>
</svg>
