<svg xmlns="http://www.w3.org/2000/svg" width="48.132" height="49.798" viewBox="0 0 48.132 49.798">
  <path id="Path_3914" data-name="Path 3914" d="M-2609.861,106.168a2.943,2.943,0,0,0,2.94-2.94v-.342a2.943,2.943,0,0,0-2.94-2.94h-41.752a2.944,2.944,0,0,0-2.94,2.94v.342a2.944,2.944,0,0,0,2.94,2.94h2.028v27.063h-2.028a2.944,2.944,0,0,0-2.94,2.94v.342a2.944,2.944,0,0,0,2.94,2.94h20.123v4.041a2.925,2.925,0,0,0-2.171,2.826,2.925,2.925,0,0,0,2.925,2.924,2.924,2.924,0,0,0,2.924-2.924,2.925,2.925,0,0,0-2.171-2.826v-4.041h20.123a2.943,2.943,0,0,0,2.94-2.94v-.342a2.943,2.943,0,0,0-2.94-2.94h-2.028V106.168Zm-38.218,27.063V106.168h34.684v27.063Zm-5.075-30v-.342a1.542,1.542,0,0,1,1.541-1.54h41.752a1.542,1.542,0,0,1,1.541,1.54v.342a1.542,1.542,0,0,1-1.541,1.54h-41.752A1.542,1.542,0,0,1-2653.153,103.228Zm23.834,43.092a1.42,1.42,0,0,1-1.418,1.418,1.42,1.42,0,0,1-1.418-1.418,1.42,1.42,0,0,1,1.418-1.418A1.42,1.42,0,0,1-2629.319,146.32Zm21-10.149v.342a1.542,1.542,0,0,1-1.541,1.54h-41.752a1.542,1.542,0,0,1-1.541-1.54v-.342a1.542,1.542,0,0,1,1.541-1.54h41.752A1.542,1.542,0,0,1-2608.32,136.171Z" transform="translate(2654.803 -99.696)" fill="#fff" stroke="#fff" stroke-width="0.5"/>
</svg>
