<svg xmlns="http://www.w3.org/2000/svg" width="53.002" height="53.124" viewBox="0 0 53.002 53.124">
  <g id="servicio-al-cliente" transform="translate(-0.572)">
    <g id="Group_612" data-name="Group 612" transform="translate(0.573 8.568)">
      <g id="Group_611" data-name="Group 611" transform="translate(0)">
        <path id="Path_2591" data-name="Path 2591" d="M43.63,117.7l-1.984-5.952a6,6,0,0,0-4.618-4L31.3,106.7v-.444a8.623,8.623,0,0,0,2.554-2.268h1.73a2.574,2.574,0,0,0,2.571-2.571V91.139a11.139,11.139,0,1,0-22.278,0v6a3.433,3.433,0,0,0,2.732,3.356,8.584,8.584,0,0,0,4.122,5.767v.444l-5.727,1.042a6,6,0,0,0-4.617,4l-.343,1.029L9.13,109.86a.858.858,0,0,1,0-1.212l3.385-3.384L6.161,98.911l-3.825,3.825a6,6,0,0,0,0,8.482l11.58,11.58a5.995,5.995,0,0,0,8.455.026L26.546,119l-1.3-1.3Zm-7.186-16.28a.858.858,0,0,1-.857.857h-.721a8.51,8.51,0,0,0,.559-1.785,3.394,3.394,0,0,0,1.019-.405Zm-.857-2.809V95.661a1.7,1.7,0,0,1,0,2.951Zm-17.137,0a1.7,1.7,0,0,1,0-2.951Zm0-5.76v.979a3.4,3.4,0,0,0-.857.355V91.139a9.425,9.425,0,0,1,18.851,0v3.047a3.368,3.368,0,0,0-.857-.355v-.979H34.73a9.427,9.427,0,0,1-6.708-2.779l-1-1-1,1a9.427,9.427,0,0,1-6.708,2.779Zm1.714,6V94.534a11.109,11.109,0,0,0,6.855-3.045,11.1,11.1,0,0,0,6.855,3.045v4.317a6.8,6.8,0,0,1-.927,3.427H27.019v1.714h4.519a6.844,6.844,0,0,1-11.374-5.141Zm9.425,8.173v.04l-2.571,2.571-2.571-2.571v-.04a8.562,8.562,0,0,0,5.141,0Zm-15.574,5.267a4.286,4.286,0,0,1,3.3-2.861l5.989-1.088,3.716,3.716,3.715-3.715,5.988,1.088a4.284,4.284,0,0,1,3.3,2.861l1.233,3.7H23.531l-3.337-3.337L16.485,116a.875.875,0,0,1-1.212,0L13.4,114.133ZM6.161,101.335l3.929,3.929-.931.931L5.23,102.265Zm15.025,20.254a4.285,4.285,0,0,1-6.059,0L3.546,110.008a4.285,4.285,0,0,1,0-6.059l.471-.471,3.929,3.93-.031.031a2.575,2.575,0,0,0,0,3.636l6.144,6.144a2.557,2.557,0,0,0,1.818.753,2.523,2.523,0,0,0,1.787-.723l.064-.057,3.947,3.948Zm1.757-1.611L19,116.039l1.132-1.023,3.932,3.932Z" transform="translate(-0.58 -80)" fill="#fff"/>
      </g>
    </g>
    <g id="Group_614" data-name="Group 614" transform="translate(36.437)">
      <g id="Group_613" data-name="Group 613" transform="translate(0)">
        <path id="Path_2592" data-name="Path 2592" d="M349.994,0H338a2.574,2.574,0,0,0-2.57,2.571V9.425A2.574,2.574,0,0,0,338,12h2.289l-.886,5.168L347.67,12h2.325a2.574,2.574,0,0,0,2.57-2.571V2.571A2.574,2.574,0,0,0,349.994,0Zm.857,9.425a.858.858,0,0,1-.857.857h-2.816l-5.442,3.4.583-3.4H338a.858.858,0,0,1-.857-.857V2.571A.858.858,0,0,1,338,1.714h12a.858.858,0,0,1,.857.857Z" transform="translate(-335.428)" fill="#fff"/>
      </g>
    </g>
    <g id="Group_616" data-name="Group 616" transform="translate(39.864 3.427)">
      <g id="Group_615" data-name="Group 615">
        <rect id="Rectangle_2001" data-name="Rectangle 2001" width="10.282" height="1.714" fill="#fff"/>
      </g>
    </g>
    <g id="Group_618" data-name="Group 618" transform="translate(39.864 6.855)">
      <g id="Group_617" data-name="Group 617">
        <rect id="Rectangle_2002" data-name="Rectangle 2002" width="6.855" height="1.714" fill="#fff"/>
      </g>
    </g>
    <g id="Group_620" data-name="Group 620" transform="translate(48.433 6.855)">
      <g id="Group_619" data-name="Group 619">
        <rect id="Rectangle_2003" data-name="Rectangle 2003" width="1.714" height="1.714" fill="#fff"/>
      </g>
    </g>
    <g id="Group_622" data-name="Group 622" transform="translate(0.572 2.571)">
      <g id="Group_621" data-name="Group 621" transform="translate(0)">
        <path id="Path_2593" data-name="Path 2593" d="M27.012,24A23.976,23.976,0,0,0,3.665,42.546L2.041,39.84l-1.469.882L3.584,45.74,8.6,42.728l-.882-1.469L5.4,42.652A22.284,22.284,0,0,1,33.613,26.708l.507-1.637A23.976,23.976,0,0,0,27.012,24Z" transform="translate(-0.572 -24)" fill="#fff"/>
      </g>
    </g>
    <g id="Group_624" data-name="Group 624" transform="translate(44.321 15.96)">
      <g id="Group_623" data-name="Group 623">
        <path id="Path_2594" data-name="Path 2594" d="M417.873,152.028l-5.019-3.012-3.011,5.019,1.469.882,1.5-2.5a22.3,22.3,0,0,1-3.776,21.227l1.331,1.08a23.994,23.994,0,0,0,4.106-22.737l2.518,1.511Z" transform="translate(-409.036 -149.016)" fill="#fff"/>
      </g>
    </g>
  </g>
</svg>
